<svg id="coordination" xmlns="http://www.w3.org/2000/svg" width="20.602" height="20.602" viewBox="0 0 20.602 20.602">
  <path id="Path_9" data-name="Path 9" d="M242.633,10.633a.332.332,0,0,0,.332-.332V2.326a.332.332,0,0,0-.332-.332h-2.36a1.661,1.661,0,1,0-3.256,0h-2.36a.332.332,0,0,0-.332.332V4.791a1.661,1.661,0,1,0,0,3.045V10.3a.332.332,0,0,0,.332.332h1.661v3.323a.335.335,0,0,0,.017.1l.252.756-.786.524a.333.333,0,0,0-.141.342l.332,1.661a.336.336,0,0,0,.066.143l1.257,1.57V20.6h.665V18.94a.332.332,0,0,0-.073-.208l-1.279-1.6-.273-1.364.45-.3.195.584.63-.21-.647-1.942V9.636a.332.332,0,1,1,.665,0v3.655a.332.332,0,0,0,.609.184l.566-.849h.309l.566.849a.333.333,0,0,0,.276.148h.487l.566.849a.333.333,0,0,0,.276.148h.487l.51.765v1.777l-1.256,1.57a.331.331,0,0,0-.073.207V20.6h.665V19.057l1.256-1.57a.332.332,0,0,0,.073-.208V15.285a.335.335,0,0,0-.056-.184l-.665-1a.333.333,0,0,0-.276-.148h-.487l-.566-.849a.333.333,0,0,0-.276-.148h-.487l-.566-.849a.333.333,0,0,0-.276-.148h-.665a.333.333,0,0,0-.276.148l-.056.084V10.633Zm-5.317-1.994a1,1,0,0,0-1,1v.332h-1.329V7.193a.332.332,0,0,0-.581-.22,1,1,0,1,1,0-1.318.332.332,0,0,0,.581-.22V2.658h2.5a.332.332,0,0,0,.287-.5,1,1,0,1,1,1.728,0,.332.332,0,0,0,.287.5h2.5v7.31h-3.987V9.636A1,1,0,0,0,237.317,8.639Zm0,0" transform="translate(-222.364)" fill="#1a68b5"/>
  <path id="Path_10" data-name="Path 10" d="M.332,56.639H2.8a1.661,1.661,0,1,0,3.045,0H8.307a.332.332,0,0,0,.332-.332V53.2a.332.332,0,0,0-.581-.22,1,1,0,1,1,0-1.318.332.332,0,0,0,.581-.22V48.332A.332.332,0,0,0,8.307,48H.332A.332.332,0,0,0,0,48.332v7.975A.332.332,0,0,0,.332,56.639Zm.332-7.975h7.31V50.8a1.661,1.661,0,1,0,0,3.045v2.133H5.2a.332.332,0,0,0-.22.581,1,1,0,1,1-1.318,0,.332.332,0,0,0-.22-.581H.665Zm0,0" transform="translate(0 -46.006)" fill="#1a68b5"/>
  <path id="Path_11" data-name="Path 11" d="M9.3,330.658a1.663,1.663,0,0,0-.665.139v-2.465A.332.332,0,0,0,8.307,328H5.2a.332.332,0,0,0-.22.581,1,1,0,1,1-1.318,0A.332.332,0,0,0,3.44,328H.332a.332.332,0,0,0-.332.332v6.646H.665v-6.313H2.8a1.661,1.661,0,1,0,3.045,0H7.975v2.776a.332.332,0,0,0,.581.22,1,1,0,1,1,0,1.318.332.332,0,0,0-.581.22v1.779h.665v-1.136a1.661,1.661,0,1,0,.665-3.184Zm0,0" transform="translate(0 -314.376)" fill="#1a68b5"/>
  <path id="Path_12" data-name="Path 12" d="M325.317,85.981h.665V80.332a.332.332,0,0,0-.332-.332H320v.665h5.317Zm0,0" transform="translate(-306.709 -76.677)" fill="#1a68b5"/>
  <path id="Path_13" data-name="Path 13" d="M37.981,80H32.332a.332.332,0,0,0-.332.332v5.649h.665V80.665h5.317Zm0,0" transform="translate(-30.671 -76.677)" fill="#1a68b5"/>
  <path id="Path_14" data-name="Path 14" d="M32,360h.665v5.649H32Zm0,0" transform="translate(-30.671 -345.047)" fill="#1a68b5"/>
</svg>
