<svg xmlns="http://www.w3.org/2000/svg" width="23.645" height="23.645" viewBox="0 0 23.645 23.645">
  <g id="recommended" transform="translate(0 0)">
    <g id="Group_15" data-name="Group 15" transform="translate(5.923 5.327)">
      <g id="Group_14" data-name="Group 14">
        <path id="Path_21" data-name="Path 21" d="M140.462,120.447a1.359,1.359,0,0,0-1.357-1.357h-2.495a4.1,4.1,0,0,0,1.079-2.153,1.5,1.5,0,0,0-.36-1.158,1.3,1.3,0,0,0-.971-.446h-.013a1.353,1.353,0,0,0-1.357,1.346,1.728,1.728,0,0,1-.492.675,3.856,3.856,0,0,1-1.47.86,1.8,1.8,0,0,0-.756.495,4.9,4.9,0,0,1-.51.47.76.76,0,0,0-.357-.089h-2.369a.766.766,0,0,0-.765.765v6.318a.766.766,0,0,0,.765.765H131.4a.766.766,0,0,0,.669-.395h6.046a1.16,1.16,0,0,0,1-1.75,1.159,1.159,0,0,0,.395-1.58,1.159,1.159,0,0,0,.354-1.643A1.357,1.357,0,0,0,140.462,120.447Zm-1.357.617h-.2a.37.37,0,1,0,0,.74.42.42,0,1,1,0,.839h-.395a.37.37,0,0,0,0,.74.42.42,0,1,1,0,.839h-.395a.37.37,0,1,0,0,.74.42.42,0,0,1,0,.839h-5.95v-3.579a.37.37,0,1,0-.74,0v3.949a.025.025,0,0,1-.025.025h-2.369a.025.025,0,0,1-.025-.025v-6.319a.025.025,0,0,1,.025-.025H131.4a.025.025,0,0,1,.025.025v.79a.37.37,0,0,0,.74,0v-.79c0-.018,0-.036,0-.053a5.621,5.621,0,0,0,.644-.586,1.07,1.07,0,0,1,.445-.3,4.574,4.574,0,0,0,1.8-1.071,1.931,1.931,0,0,0,.677-1.162.606.606,0,0,1,.18-.433.621.621,0,0,1,.442-.179.564.564,0,0,1,.424.2.766.766,0,0,1,.178.585,3.916,3.916,0,0,1-1.5,2.316.37.37,0,0,0,.233.658H139.1a.617.617,0,0,1,0,1.234Z" transform="translate(-128.267 -115.333)" fill="#1A68B5"/>
      </g>
    </g>
    <g id="Group_17" data-name="Group 17" transform="translate(7.501 14.608)">
      <g id="Group_16" data-name="Group 16">
        <path id="Path_22" data-name="Path 22" d="M162.8,316.306a.372.372,0,1,0,.372.372A.374.374,0,0,0,162.8,316.306Z" transform="translate(-162.43 -316.306)" fill="#1A68B5"/>
      </g>
    </g>
    <g id="Group_19" data-name="Group 19" transform="translate(0 0)">
      <g id="Group_18" data-name="Group 18" transform="translate(0 0)">
        <path id="Path_23" data-name="Path 23" d="M22.984,11.823l.636-1.683a.37.37,0,0,0-.057-.362l-1.125-1.4.085-1.8a.37.37,0,0,0-.167-.327l-1.5-.988-.475-1.735a.37.37,0,0,0-.259-.259l-1.735-.475-.988-1.5a.371.371,0,0,0-.327-.167l-1.8.085L13.867.082A.37.37,0,0,0,13.5.024L11.822.66,10.139.024a.37.37,0,0,0-.362.057l-1.4,1.125-1.8-.085a.369.369,0,0,0-.327.167l-.988,1.5-1.735.475a.37.37,0,0,0-.259.259L2.791,5.262l-1.5.988a.37.37,0,0,0-.167.327l.085,1.8L.081,9.777a.37.37,0,0,0-.057.362L.66,11.823.024,13.506a.37.37,0,0,0,.057.362l1.125,1.4-.085,1.8a.37.37,0,0,0,.167.327l1.5.988.475,1.735a.37.37,0,0,0,.259.259l1.735.475.988,1.5a.371.371,0,0,0,.327.167l1.8-.085,1.4,1.125a.37.37,0,0,0,.362.057l1.683-.636,1.683.636a.37.37,0,0,0,.362-.057l1.4-1.125,1.8.085a.371.371,0,0,0,.327-.167l.988-1.5,1.735-.475a.37.37,0,0,0,.259-.259l.475-1.735,1.5-.988a.37.37,0,0,0,.167-.327l-.085-1.8,1.125-1.4a.37.37,0,0,0,.057-.362Zm-.742.131.611,1.616-1.08,1.348a.37.37,0,0,0-.081.249l.081,1.726-1.444.949a.37.37,0,0,0-.154.212l-.456,1.667-1.667.456a.37.37,0,0,0-.212.154l-.949,1.444-1.726-.081a.37.37,0,0,0-.249.081l-1.348,1.08-1.616-.611a.371.371,0,0,0-.262,0l-1.616.611-1.348-1.08a.371.371,0,0,0-.249-.081l-1.726.081L5.8,20.33a.37.37,0,0,0-.212-.154L3.925,19.72l-.456-1.667a.37.37,0,0,0-.154-.212l-1.444-.949.081-1.726a.37.37,0,0,0-.081-.249L.791,13.57,1.4,11.953a.37.37,0,0,0,0-.262L.791,10.075l1.08-1.348a.37.37,0,0,0,.081-.249L1.871,6.752,3.315,5.8a.37.37,0,0,0,.154-.212l.456-1.667,1.667-.456A.37.37,0,0,0,5.8,3.315l.949-1.444,1.726.081a.37.37,0,0,0,.249-.081L10.075.792l1.616.611a.37.37,0,0,0,.262,0L13.569.792l1.348,1.08a.37.37,0,0,0,.249.081l1.726-.081.949,1.444a.37.37,0,0,0,.212.154l1.667.456.456,1.667a.37.37,0,0,0,.154.212l1.444.949-.081,1.726a.37.37,0,0,0,.081.249l1.08,1.348-.611,1.616A.371.371,0,0,0,22.242,11.953Z" transform="translate(0 0)" fill="#1A68B5"/>
      </g>
    </g>
    <g id="Group_21" data-name="Group 21" transform="translate(17.577 4.752)">
      <g id="Group_20" data-name="Group 20">
        <path id="Path_24" data-name="Path 24" d="M381.824,103.568c-.092-.1-.188-.2-.284-.3s-.2-.192-.3-.284a.37.37,0,1,0-.5.545c.092.085.185.173.274.262s.177.181.262.274a.37.37,0,0,0,.546-.5Z" transform="translate(-380.623 -102.89)" fill="#1A68B5"/>
      </g>
    </g>
    <g id="Group_23" data-name="Group 23" transform="translate(2.357 2.365)">
      <g id="Group_22" data-name="Group 22">
        <path id="Path_25" data-name="Path 25" d="M65.573,52.686A9.454,9.454,0,0,0,53.26,66.743a.37.37,0,0,0,.567-.477A8.714,8.714,0,0,1,65.175,53.31a.37.37,0,0,0,.4-.624Z" transform="translate(-51.047 -51.212)" fill="#1A68B5"/>
      </g>
    </g>
    <g id="Group_25" data-name="Group 25" transform="translate(5.6 6.573)">
      <g id="Group_24" data-name="Group 24">
        <path id="Path_26" data-name="Path 26" d="M135.455,142.5a.37.37,0,1,0-.624.4,8.714,8.714,0,0,1-12.956,11.349.37.37,0,0,0-.477.567,9.416,9.416,0,0,0,6.076,2.213q.193,0,.387-.008a9.455,9.455,0,0,0,7.594-14.518Z" transform="translate(-121.266 -142.332)" fill="#1A68B5"/>
      </g>
    </g>
  </g>
</svg>
