<svg xmlns="http://www.w3.org/2000/svg" width="42" height="42" viewBox="0 0 42 42">
  <g id="Group_37" data-name="Group 37" transform="translate(-34 -402)">
    <rect id="Rectangle_10" data-name="Rectangle 10" width="42" height="42" transform="translate(34 402)" fill="#1a68b5"/>
    <g id="right-arrow" transform="translate(49 413)">
      <g id="Group_8" data-name="Group 8">
        <path id="Path_7" data-name="Path 7" d="M101.785,8.873,110.351.308a1.055,1.055,0,0,1,1.489,0l.631.631a1.054,1.054,0,0,1,0,1.489l-7.193,7.193,7.2,7.2a1.055,1.055,0,0,1,0,1.489l-.631.631a1.055,1.055,0,0,1-1.489,0l-8.574-8.574a1.063,1.063,0,0,1,0-1.494Z" transform="translate(-101.478)" fill="#fff"/>
      </g>
    </g>
  </g>
</svg>
