<svg xmlns="http://www.w3.org/2000/svg" width="21.621" height="21.621" viewBox="0 0 21.621 21.621">
  <path id="team_1_" data-name="team (1)" d="M21.621,9.067h-.784l-1.168.615a1.734,1.734,0,0,0-.416-.171l-1.469-.368V8.976a2.449,2.449,0,0,0,1.047-2v-.61a2.505,2.505,0,0,0-2.366-2.528c-.066,0-.131,0-.2,0l.381-.892L14.8,1.1l-1.089.709a5.9,5.9,0,0,0-1.305-.541L12.14,0H9.482L9.213,1.27a5.892,5.892,0,0,0-1.305.541L6.819,1.1,4.974,2.949l.374.892-.042,0A2.442,2.442,0,0,0,2.79,6.277v.7a2.448,2.448,0,0,0,1.046,2v.167l-.958.24L1.141,8.369H0V15.6l3.431,1.143H4.1l.083-.292,1.052.631A1.086,1.086,0,0,0,6.281,18.13a1.086,1.086,0,0,0,1.046,1.046,1.086,1.086,0,0,0,1.046,1.046,1.085,1.085,0,0,0,1.7.861l.309.273a1.062,1.062,0,0,0,.7.265h.065a1.062,1.062,0,0,0,1.06-1.048,1.061,1.061,0,0,0,1.046-1.046A1.061,1.061,0,0,0,14.3,18.48a1.072,1.072,0,0,0,1.048-1.07,1.021,1.021,0,0,0-.005-.1l6.282-3.141Zm-3.487-2.7v.61a1.75,1.75,0,0,1-.873,1.509l-.174.1v1.1l1.742.435L15,12.142V11.2a1.735,1.735,0,0,0-.5-1.215l1.2-.3v-1.1l-.174-.1a1.749,1.749,0,0,1-.872-1.508v-.7a1.744,1.744,0,0,1,1.8-1.743A1.8,1.8,0,0,1,18.134,6.365Zm-6.8,5.5-1.579-.5a4.307,4.307,0,0,0-2.235-.1l-.2.044v-.1a1.045,1.045,0,0,1,.792-1.015l2-.5v-1.1l-.174-.1a1.749,1.749,0,0,1-.872-1.508v-.7a1.744,1.744,0,0,1,1.8-1.743,1.8,1.8,0,0,1,1.69,1.83v.61a1.75,1.75,0,0,1-.873,1.509l-.174.1v1.1l2,.5A1.045,1.045,0,0,1,14.3,11.2v1.307l-.086.045H14l-2.144-.613A2.2,2.2,0,0,0,11.336,11.867ZM7.4,5.219a3.833,3.833,0,0,1,6.8-.028,2.425,2.425,0,0,0-.256,1.086v.7a2.448,2.448,0,0,0,1.046,2v.167L13.6,9.492l-1.4-.349V8.976a2.449,2.449,0,0,0,1.047-2v-.61a2.505,2.505,0,0,0-2.366-2.528,2.442,2.442,0,0,0-2.516,2.44v.7a2.448,2.448,0,0,0,1.046,2v.167l-1.395.349-1.4-.349V8.976a2.449,2.449,0,0,0,1.047-2v-.61A2.57,2.57,0,0,0,7.4,5.219ZM5.8,3.11,6.912,2l.981.638.188-.115a5.2,5.2,0,0,1,1.51-.626L9.8,1.842,10.047.7h1.527l.242,1.144.215.051a5.209,5.209,0,0,1,1.51.626l.188.115L14.709,2l1.113,1.113-.4.926a2.438,2.438,0,0,0-.736.489c-.014.014-.027.029-.041.043a4.529,4.529,0,0,0-7.691.021,2.46,2.46,0,0,0-.769-.545ZM4.533,9.688v-1.1l-.174-.1a1.749,1.749,0,0,1-.872-1.508v-.7a1.744,1.744,0,0,1,1.8-1.743,1.8,1.8,0,0,1,1.69,1.83v.61A1.75,1.75,0,0,1,6.1,8.484l-.174.1v1.1l1.2.3a1.735,1.735,0,0,0-.5,1.215v.258L5.538,11.7l.028-.1.013-.644L3.74,9.886ZM.7,9.067H.952L3.46,10.53,2.194,15.592l-1.5-.5Zm2.846,6.975-.686-.229L4.087,10.9l.8.464v.1L3.573,16.041Zm2.385,1a.394.394,0,0,1,.114-.277l.613-.613a.391.391,0,0,1,.553.553l-.613.613a.391.391,0,0,1-.667-.277Zm1.046,1.046a.394.394,0,0,1,.114-.277L7.7,17.2a.391.391,0,0,1,.553.553l-.613.613a.391.391,0,0,1-.667-.277Zm1.046,1.046a.394.394,0,0,1,.114-.277l.613-.613A.391.391,0,0,1,9.3,18.8l-.613.613a.391.391,0,0,1-.667-.277Zm1.437,1.437a.391.391,0,0,1-.277-.667l.613-.613a.391.391,0,0,1,.553.553l-.613.613A.394.394,0,0,1,9.458,20.575Zm1.686.349H11.08a.361.361,0,0,1-.24-.091l-.261-.23.262-.262a1.084,1.084,0,0,0,.22-.324l.317.264a.364.364,0,0,1-.233.643Zm3.127-3.139h-.06a.374.374,0,0,1-.24-.087L12.08,16.122l-.447.536,1.836,1.53a.364.364,0,0,1-.233.643h-.076a.364.364,0,0,1-.233-.084l-1.894-1.578-.447.536,1.836,1.53a.363.363,0,0,1-.233.643.576.576,0,0,1-.367-.133l-.778-.649a1.085,1.085,0,0,0-.936-.609A1.086,1.086,0,0,0,9.063,17.44a1.086,1.086,0,0,0-1.046-1.046,1.086,1.086,0,0,0-1.854-.731l-.613.613a1.074,1.074,0,0,0-.1.119l-1.071-.643.939-3.287,2.354-.523a3.592,3.592,0,0,1,1.871.085l.514.164-1.742.871a1.162,1.162,0,0,0-.645,1.045v.069a1.168,1.168,0,0,0,1.769,1l1.3-.779a.72.72,0,0,1,.836.081l2.946,2.652a.375.375,0,0,1-.251.654Zm6.652-4.052-5.875,2.938c-.019-.02-.039-.04-.06-.058l-2.946-2.652a1.4,1.4,0,0,0-1.662-.161l-1.3.779a.47.47,0,0,1-.712-.4v-.069a.468.468,0,0,1,.26-.421l1.945-.973a1.516,1.516,0,0,1,1.087-.1l2.191.626.531.013,6.54-3.442Zm0,0" fill="#ffffff"/>
</svg>
