<svg xmlns="http://www.w3.org/2000/svg" width="20.011" height="20.021" viewBox="0 0 20.011 20.021">
  <g id="value" transform="translate(-25.108 -24.989)">
    <path id="Path_15" data-name="Path 15" d="M42.874,283.437l-.1.055a1.416,1.416,0,0,0-1.683-.421l-.006,0-.243.131a1.843,1.843,0,0,0-2.11-.191l-1.307.711H35.684a2.511,2.511,0,0,1-1.087-.249l-.239-.116a4.1,4.1,0,0,0-4.271.417l-.017.014-.578.514a2,2,0,0,1-.756.421l-.328-1.077a.26.26,0,0,0-.249-.184H25.368a.26.26,0,0,0-.258.291l.931,7.634a.26.26,0,0,0,.258.229h4.189a.26.26,0,0,0,.249-.336l-.55-1.806,1.714-1.083a1.031,1.031,0,0,1,.752-.1l.016,0,3.487.642a4.512,4.512,0,0,0,2.788-.394.26.26,0,0,0,.032-.019l6.03-4.141a.26.26,0,0,0,.076-.348A1.655,1.655,0,0,0,42.874,283.437Zm-1.548.1a.888.888,0,0,1,.971.215l-2.287,1.234-.134.071a1.983,1.983,0,0,0-.313-.569Zm-2.345-.064.006,0a1.322,1.322,0,0,1,1.345.013l-1.163.626a1.976,1.976,0,0,0-.743-.334ZM26.529,291.1l-.867-7.114h2.307l2.169,7.114ZM38.7,288.09a3.988,3.988,0,0,1-2.447.34l-3.478-.64a1.55,1.55,0,0,0-1.13.153l-.012.007-1.6,1.011-1.14-3.738a2.525,2.525,0,0,0,.95-.531l.569-.507a3.585,3.585,0,0,1,3.723-.358l.239.116a3.035,3.035,0,0,0,1.314.3H38a1.467,1.467,0,0,1,1.439,1.191l-1.681-.076a10.062,10.062,0,0,0-1.83.085.26.26,0,1,0,.071.515,9.535,9.535,0,0,1,1.735-.08l1.978.089h.012a.26.26,0,0,0,.26-.26c0-.042,0-.084,0-.125l.271-.143,2.866-1.546a1.136,1.136,0,0,1,1.367.219Z" transform="translate(0 -246.608)" fill="#1a68b5"/>
    <path id="Path_16" data-name="Path 16" d="M76.974,432.117a.819.819,0,1,0,.819-.819A.819.819,0,0,0,76.974,432.117Zm.819-.3a.3.3,0,1,1-.3.3.3.3,0,0,1,.3-.3Z" transform="translate(-49.619 -388.702)" fill="#1a68b5"/>
    <path id="Path_17" data-name="Path 17" d="M214.482,27.819v-.857a1.974,1.974,0,1,0-3.947,0v.857a1.974,1.974,0,1,0,3.947,0Zm-3.427,0v-.857a1.454,1.454,0,1,1,2.907,0v.857a1.454,1.454,0,1,1-2.907,0Z" transform="translate(-177.391)" fill="#1a68b5"/>
    <path id="Path_18" data-name="Path 18" d="M74.882,143.91h6.362a.26.26,0,0,0,.26-.26v-.6H85.86a.26.26,0,0,0,.26-.26v-1.688a1.949,1.949,0,0,0-1.825-1.944.3.3,0,0,0-.268.148,1.193,1.193,0,0,1-1.882-.046.26.26,0,0,0-.216-.105,1.927,1.927,0,0,0-.956.279,2.186,2.186,0,0,0-1.525-.757.316.316,0,0,0-.268.156,1.4,1.4,0,0,1-2.209-.054.259.259,0,0,0-.216-.105,2.176,2.176,0,0,0-1.51.659c-.033.034-.064.068-.094.1a1.933,1.933,0,0,0-.886-.278.3.3,0,0,0-.268.148,1.193,1.193,0,0,1-1.882-.046.261.261,0,0,0-.216-.105,1.948,1.948,0,0,0-1.9,1.947v1.688a.26.26,0,0,0,.26.26h4.362v.6A.26.26,0,0,0,74.882,143.91Zm6.936-4.223a1.713,1.713,0,0,0,2.565.007,1.429,1.429,0,0,1,1.216,1.412v1.428H81.5v-1.668a2.175,2.175,0,0,0-.24-1A1.405,1.405,0,0,1,81.819,139.687Zm-5.175-.481a1.92,1.92,0,0,0,2.9.007,1.67,1.67,0,0,1,1.441,1.653v2.525H75.142v-2.525A1.68,1.68,0,0,1,76.643,139.206Zm-6.123,3.328v-1.428a1.438,1.438,0,0,1,1.268-1.419,1.713,1.713,0,0,0,2.565.007,1.418,1.418,0,0,1,.507.179,2.178,2.178,0,0,0-.238.993v1.668Z" transform="translate(-42.947 -108.762)" fill="#1a68b5"/>
    <path id="Path_19" data-name="Path 19" d="M334.65,52.77v-.75a1.76,1.76,0,1,0-3.52,0v.75a1.76,1.76,0,1,0,3.52,0Zm-3,0v-.75a1.24,1.24,0,1,1,2.48,0v.75a1.24,1.24,0,1,1-2.48,0Z" transform="translate(-292.761 -24.176)" fill="#1a68b5"/>
    <path id="Path_20" data-name="Path 20" d="M103.166,52.77v-.75a1.76,1.76,0,1,0-3.52,0v.75a1.76,1.76,0,1,0,3.52,0Zm-3,0v-.75a1.24,1.24,0,1,1,2.48,0v.75a1.24,1.24,0,1,1-2.48,0Z" transform="translate(-71.308 -24.176)" fill="#1a68b5"/>
  </g>
</svg>
